<svg width="14" height="8" viewBox="0 0 14 8" fill="none" xmlns="http://www.w3.org/2000/svg">
<path id="Vector" d="M0.344765 7.6625C0.23552 7.55644 0.148811 7.43024 0.0896381 7.29121C0.0304651 7.15217 -3.06113e-07 7.00304 -2.99529e-07 6.85242C-2.92945e-07 6.7018 0.0304652 6.55267 0.0896381 6.41363C0.148811 6.27459 0.23552 6.1484 0.344765 6.04233L6.17247 0.337496C6.28082 0.230555 6.40973 0.145674 6.55176 0.0877485C6.69379 0.0298232 6.84614 2.99254e-07 7 3.0598e-07C7.15387 3.12705e-07 7.30621 0.0298232 7.44824 0.0877486C7.59027 0.145674 7.71918 0.230555 7.82753 0.337496L13.6552 6.04233C13.7645 6.1484 13.8512 6.27459 13.9104 6.41363C13.9695 6.55267 14 6.7018 14 6.85242C14 7.00304 13.9695 7.15217 13.9104 7.29121C13.8512 7.43024 13.7645 7.55644 13.6552 7.6625C13.5469 7.76945 13.418 7.85433 13.2759 7.91225C13.1339 7.97018 12.9816 8 12.8277 8C12.6738 8 12.5215 7.97018 12.3795 7.91225C12.2374 7.85433 12.1085 7.76944 12.0002 7.6625L7 2.75635L1.99983 7.6625C1.89148 7.76944 1.76257 7.85433 1.62054 7.91225C1.47851 7.97018 1.32616 8 1.1723 8C1.01843 8 0.86609 7.97018 0.724058 7.91225C0.582027 7.85433 0.453117 7.76944 0.344765 7.6625Z" fill="#828A99"/>
</svg>
