<svg width="28" height="28" viewBox="0 0 28 28" fill="none" xmlns="http://www.w3.org/2000/svg">
<circle cx="14" cy="14" r="14" fill="#A9FF7E"/>
<path d="M18.97 8.67016C19.0022 8.58085 19.0083 8.48423 18.9877 8.39157C18.967 8.29892 18.9203 8.21406 18.8532 8.14693C18.7861 8.07981 18.7012 8.03318 18.6086 8.0125C18.5159 7.99182 18.4193 7.99794 18.33 8.03016L7.33 12.0302C7.23481 12.0647 7.15234 12.1273 7.0935 12.2097C7.03467 12.2921 7.00223 12.3904 7.0005 12.4916C6.99877 12.5929 7.02781 12.6923 7.08379 12.7766C7.13977 12.861 7.22004 12.9264 7.314 12.9642L11.747 14.7372L14.647 11.6472L15.354 12.3542L12.374 15.5302L14.036 19.6862C14.0737 19.7801 14.139 19.8605 14.2233 19.9165C14.3076 19.9726 14.4069 20.0018 14.5082 20.0001C14.6094 19.9985 14.7078 19.9662 14.7902 19.9074C14.8727 19.8487 14.9354 19.7663 14.97 19.6712L18.97 8.67016Z" fill="black"/>
<path d="M18.97 8.67016C19.0022 8.58085 19.0083 8.48423 18.9877 8.39157C18.967 8.29892 18.9203 8.21406 18.8532 8.14693C18.7861 8.07981 18.7012 8.03318 18.6086 8.0125C18.5159 7.99182 18.4193 7.99794 18.33 8.03016L7.33 12.0302C7.23481 12.0647 7.15234 12.1273 7.0935 12.2097C7.03467 12.2921 7.00223 12.3904 7.0005 12.4916C6.99877 12.5929 7.02781 12.6923 7.08379 12.7766C7.13977 12.861 7.22004 12.9264 7.314 12.9642L11.747 14.7372L14.647 11.6472L15.354 12.3542L12.374 15.5302L14.036 19.6862C14.0737 19.7801 14.139 19.8605 14.2233 19.9165C14.3076 19.9726 14.4069 20.0018 14.5082 20.0001C14.6094 19.9985 14.7078 19.9662 14.7902 19.9074C14.8727 19.8487 14.9354 19.7663 14.97 19.6712L18.97 8.67016Z" fill="black"/>
</svg>
