<svg width="100" height="100" viewBox="0 0 100 100" fill="none" xmlns="http://www.w3.org/2000/svg">
<g id="graphic">
<circle id="Ellipse 2199" cx="49.4998" cy="49.4998" r="48.8398" stroke="#324927" stroke-width="1.31997"/>
<circle id="Ellipse 2200" cx="49.4994" cy="49.4995" r="41.7684" stroke="#588940" stroke-width="1.31997"/>
<circle id="Ellipse 2197" cx="49.4995" cy="49.4999" r="34.697" stroke="#77B459" stroke-width="1.31997"/>
<circle id="Ellipse 2198" cx="49.4994" cy="49.4994" r="28.2856" fill="#A9FF7E"/>
<g id="icon">
<path id="Vector" d="M66.907 49.5614C66.5534 49.0585 66.4041 48.4456 66.4984 47.8327C66.5848 47.2748 66.6084 46.7012 66.5534 46.104C66.239 42.8115 63.4417 40.1634 60.1335 40.0063C57.8468 39.9041 55.7959 40.9492 54.4994 42.6072C53.9651 43.2908 53.1007 43.6209 52.2442 43.558C51.3877 43.4952 50.5469 43.4637 49.6668 43.4637C48.6532 43.4637 47.6709 43.5109 46.7044 43.5894C45.9579 43.6523 45.2507 43.3144 44.8028 42.7094C43.3177 40.7213 40.7403 39.5741 37.9429 40.1634C35.5777 40.6585 33.6211 42.4736 32.9374 44.7838C32.631 45.8132 32.576 46.819 32.7174 47.7541C32.8274 48.4692 32.6624 49.1764 32.2695 49.7893C31.7273 50.6379 31.4287 51.5416 31.4287 52.4845C31.4287 56.6256 36.9999 60.8375 44.7635 60.9632C46.2958 60.9868 48.1895 60.1145 50.209 60.1538C52.3856 60.201 53.9572 60.9082 55.8667 60.9632C62.9938 61.1911 67.8971 56.3899 67.8971 52.4845C67.8971 51.4552 67.5435 50.4729 66.8991 49.5614H66.907ZM37.6129 49.97C35.1848 49.97 33.2203 48.0056 33.2203 45.5775C33.2203 43.1494 35.1926 41.1771 37.6207 41.1771C40.0488 41.1771 42.0133 43.1415 42.0133 45.5696C42.0133 47.9977 40.0488 49.9622 37.6207 49.9622L37.6129 49.97ZM48.3703 51.8166C48.1188 51.8166 47.9145 51.5809 47.9145 51.2823C47.9145 50.9837 48.1188 50.7558 48.3703 50.7558C48.6217 50.7558 48.826 50.9916 48.826 51.2823C48.826 51.573 48.6217 51.8166 48.3703 51.8166ZM50.9634 51.8166C50.7119 51.8166 50.5076 51.5809 50.5076 51.2823C50.5076 50.9837 50.7119 50.7558 50.9634 50.7558C51.2148 50.7558 51.4191 50.9916 51.4191 51.2823C51.4191 51.573 51.2148 51.8166 50.9634 51.8166ZM61.6736 49.97C59.2456 49.97 57.2811 48.0056 57.2811 45.5775C57.2811 43.1494 59.2456 41.1849 61.6736 41.1849C64.1017 41.1849 66.0662 43.1494 66.0662 45.5775C66.0662 48.0056 64.1017 49.97 61.6736 49.97Z" fill="black"/>
<path id="Vector_2" d="M38.9249 47.4869C39.9838 47.4869 40.8422 46.6284 40.8422 45.5695C40.8422 44.5106 39.9838 43.6522 38.9249 43.6522C37.866 43.6522 37.0076 44.5106 37.0076 45.5695C37.0076 46.6284 37.866 47.4869 38.9249 47.4869Z" fill="black"/>
<path id="Vector_3" d="M60.5091 47.4861C61.568 47.4861 62.4264 46.6277 62.4264 45.5688C62.4264 44.5099 61.568 43.6515 60.5091 43.6515C59.4502 43.6515 58.5918 44.5099 58.5918 45.5688C58.5918 46.6277 59.4502 47.4861 60.5091 47.4861Z" fill="black"/>
</g>
</g>
</svg>
