<svg width="48" height="48" viewBox="0 0 48 48" fill="none" xmlns="http://www.w3.org/2000/svg">
<circle cx="24.0001" cy="24" r="24" fill="#A9FF7E"/>
<path d="M32.0825 17.4837C29.9771 16.4316 27.1821 15.875 24.0001 15.875C20.8182 15.875 18.0232 16.4316 15.9178 17.4837C13.8124 18.5359 12.6251 20.0167 12.6251 21.5625V26.4375C12.6251 27.9833 13.8256 29.4691 15.9178 30.5163C18.01 31.5634 20.8182 32.125 24.0001 32.125C27.1821 32.125 29.9771 31.5684 32.0825 30.5163C34.1878 29.4641 35.3751 27.9833 35.3751 26.4375V21.5625C35.3751 20.0167 34.1746 18.5309 32.0825 17.4837ZM23.1876 27.2337V30.4837C21.2579 30.4208 19.6329 30.1364 18.3126 29.723V26.5441C19.9042 26.9682 21.5408 27.2004 23.1876 27.2358V27.2337ZM24.8126 27.2337C26.4594 27.1984 28.096 26.9662 29.6876 26.5421V29.722C28.3673 30.1354 26.7423 30.4198 24.8126 30.4827V27.2337ZM14.2501 26.4375V24.5616C14.7615 24.986 15.3213 25.3484 15.9178 25.6413C16.1646 25.7641 16.4256 25.8799 16.6876 25.9896V29.0781C15.0799 28.2819 14.2501 27.2795 14.2501 26.4375ZM31.3126 29.0781V25.9896C31.5777 25.8799 31.8357 25.7641 32.0825 25.6413C32.6789 25.3484 33.2387 24.986 33.7501 24.5616V26.4375C33.7501 27.2795 32.9203 28.2819 31.3126 29.0781Z" fill="black"/>
</svg>
