<svg width="48" height="48" viewBox="0 0 48 48" fill="none" xmlns="http://www.w3.org/2000/svg">
<circle cx="24" cy="24" r="24" fill="#A9FF7E"/>
<path d="M24 34.8332L23.7292 31.5832H23.4583C20.8944 31.5832 18.7188 30.6894 16.9313 28.9019C15.1437 27.1144 14.25 24.9387 14.25 22.3748C14.25 19.8109 15.1437 17.6353 16.9313 15.8478C18.7188 14.0603 20.8944 13.1665 23.4583 13.1665C24.7403 13.1665 25.9366 13.4056 27.0474 13.8837C28.1582 14.3618 29.1332 15.0208 29.9724 15.8608C30.8116 16.7007 31.4703 17.6757 31.9484 18.7858C32.4265 19.8958 32.6659 21.0922 32.6667 22.3748C32.6667 23.729 32.4457 25.029 32.0037 26.2748C31.5617 27.5207 30.9564 28.6762 30.188 29.7415C29.4196 30.8068 28.5078 31.7728 27.4526 32.6394C26.3974 33.5061 25.2466 34.2373 24 34.8332ZM23.4313 28.3061C23.7382 28.3061 24 28.1978 24.2167 27.9811C24.4333 27.7644 24.5417 27.5026 24.5417 27.1957C24.5417 26.8887 24.4333 26.6269 24.2167 26.4103C24 26.1936 23.7382 26.0853 23.4313 26.0853C23.1243 26.0853 22.8625 26.1936 22.6458 26.4103C22.4292 26.6269 22.3208 26.8887 22.3208 27.1957C22.3208 27.5026 22.4292 27.7644 22.6458 27.9811C22.8625 28.1978 23.1243 28.3061 23.4313 28.3061ZM22.6458 24.8665H24.2708C24.2708 24.3248 24.325 23.9457 24.4333 23.729C24.5417 23.5123 24.8847 23.1151 25.4625 22.5373C25.7875 22.2123 26.0583 21.8603 26.275 21.4811C26.4917 21.1019 26.6 20.6957 26.6 20.2623C26.6 19.3415 26.2887 18.6507 25.6662 18.1899C25.0436 17.7291 24.3077 17.4991 23.4583 17.4998C22.6639 17.4998 21.9958 17.7212 21.4542 18.1639C20.9125 18.6066 20.5333 19.1436 20.3167 19.7748L21.8333 20.3707C21.9236 20.0637 22.0951 19.7615 22.3479 19.4639C22.6007 19.1664 22.9708 19.0172 23.4583 19.0165C23.9458 19.0158 24.3116 19.1512 24.5557 19.4228C24.7999 19.6943 24.9216 19.9922 24.9208 20.3165C24.9208 20.6234 24.8306 20.899 24.65 21.1431C24.4694 21.3872 24.2528 21.6353 24 21.8873C23.3681 22.429 22.9846 22.858 22.8495 23.1743C22.7144 23.4907 22.6466 24.0547 22.6458 24.8665Z" fill="black"/>
</svg>
