<svg width="48" height="48" viewBox="0 0 48 48" fill="none" xmlns="http://www.w3.org/2000/svg">
<rect width="48" height="48" rx="24" fill="#A9FF7E"/>
<path d="M36.2941 23.3414C36.042 22.9828 35.9356 22.5459 36.0028 22.1089C36.0644 21.7111 36.0812 21.3022 36.042 20.8764C35.8179 18.5291 33.8235 16.6411 31.465 16.5291C29.8347 16.4562 28.3726 17.2013 27.4482 18.3834C27.0672 18.8708 26.451 19.1061 25.8403 19.0613C25.2297 19.0165 24.6303 18.9941 24.0028 18.9941C23.2801 18.9941 22.5798 19.0277 21.8908 19.0837C21.3585 19.1285 20.8543 18.8876 20.535 18.4562C19.4762 17.0389 17.6387 16.2209 15.6443 16.6411C13.958 16.9941 12.563 18.2882 12.0756 19.9352C11.8571 20.6691 11.8179 21.3862 11.9188 22.0529C11.9972 22.5627 11.8796 23.0669 11.5994 23.5039C11.2129 24.1089 11 24.7532 11 25.4254C11 28.3778 14.972 31.3806 20.507 31.4702C21.5994 31.4871 22.9496 30.8652 24.3894 30.8932C25.9412 30.9268 27.0616 31.431 28.423 31.4702C33.5042 31.6327 37 28.2097 37 25.4254C37 24.6915 36.7479 23.9913 36.2885 23.3414H36.2941ZM15.409 23.6327C13.6779 23.6327 12.2773 22.2321 12.2773 20.5011C12.2773 18.77 13.6835 17.3638 15.4146 17.3638C17.1457 17.3638 18.5462 18.7644 18.5462 20.4955C18.5462 22.2265 17.1457 23.6271 15.4146 23.6271L15.409 23.6327ZM23.0784 24.9492C22.8992 24.9492 22.7535 24.7812 22.7535 24.5683C22.7535 24.3554 22.8992 24.1929 23.0784 24.1929C23.2577 24.1929 23.4034 24.361 23.4034 24.5683C23.4034 24.7756 23.2577 24.9492 23.0784 24.9492ZM24.9272 24.9492C24.7479 24.9492 24.6022 24.7812 24.6022 24.5683C24.6022 24.3554 24.7479 24.1929 24.9272 24.1929C25.1064 24.1929 25.2521 24.361 25.2521 24.5683C25.2521 24.7756 25.1064 24.9492 24.9272 24.9492ZM32.563 23.6327C30.8319 23.6327 29.4314 22.2321 29.4314 20.5011C29.4314 18.77 30.8319 17.3694 32.563 17.3694C34.2941 17.3694 35.6947 18.77 35.6947 20.5011C35.6947 22.2321 34.2941 23.6327 32.563 23.6327Z" fill="black"/>
<path d="M16.3455 21.8621C17.1004 21.8621 17.7124 21.2501 17.7124 20.4951C17.7124 19.7402 17.1004 19.1282 16.3455 19.1282C15.5905 19.1282 14.9785 19.7402 14.9785 20.4951C14.9785 21.2501 15.5905 21.8621 16.3455 21.8621Z" fill="black"/>
<path d="M31.7341 21.8621C32.4891 21.8621 33.1011 21.2501 33.1011 20.4951C33.1011 19.7402 32.4891 19.1282 31.7341 19.1282C30.9792 19.1282 30.3672 19.7402 30.3672 20.4951C30.3672 21.2501 30.9792 21.8621 31.7341 21.8621Z" fill="black"/>
<path d="M36.2941 23.3414C36.042 22.9828 35.9356 22.5459 36.0028 22.1089C36.0644 21.7111 36.0812 21.3022 36.042 20.8764C35.8179 18.5291 33.8235 16.6411 31.465 16.5291C29.8347 16.4562 28.3726 17.2013 27.4482 18.3834C27.0672 18.8708 26.451 19.1061 25.8403 19.0613C25.2297 19.0165 24.6303 18.9941 24.0028 18.9941C23.2801 18.9941 22.5798 19.0277 21.8908 19.0837C21.3585 19.1285 20.8543 18.8876 20.535 18.4562C19.4762 17.0389 17.6387 16.2209 15.6443 16.6411C13.958 16.9941 12.563 18.2882 12.0756 19.9352C11.8571 20.6691 11.8179 21.3862 11.9188 22.0529C11.9972 22.5627 11.8796 23.0669 11.5994 23.5039C11.2129 24.1089 11 24.7532 11 25.4254C11 28.3778 14.972 31.3806 20.507 31.4702C21.5994 31.4871 22.9496 30.8652 24.3894 30.8932C25.9412 30.9268 27.0616 31.431 28.423 31.4702C33.5042 31.6327 37 28.2097 37 25.4254C37 24.6915 36.7479 23.9913 36.2885 23.3414H36.2941ZM15.409 23.6327C13.6779 23.6327 12.2773 22.2321 12.2773 20.5011C12.2773 18.77 13.6835 17.3638 15.4146 17.3638C17.1457 17.3638 18.5462 18.7644 18.5462 20.4955C18.5462 22.2265 17.1457 23.6271 15.4146 23.6271L15.409 23.6327ZM23.0784 24.9492C22.8992 24.9492 22.7535 24.7812 22.7535 24.5683C22.7535 24.3554 22.8992 24.1929 23.0784 24.1929C23.2577 24.1929 23.4034 24.361 23.4034 24.5683C23.4034 24.7756 23.2577 24.9492 23.0784 24.9492ZM24.9272 24.9492C24.7479 24.9492 24.6022 24.7812 24.6022 24.5683C24.6022 24.3554 24.7479 24.1929 24.9272 24.1929C25.1064 24.1929 25.2521 24.361 25.2521 24.5683C25.2521 24.7756 25.1064 24.9492 24.9272 24.9492ZM32.563 23.6327C30.8319 23.6327 29.4314 22.2321 29.4314 20.5011C29.4314 18.77 30.8319 17.3694 32.563 17.3694C34.2941 17.3694 35.6947 18.77 35.6947 20.5011C35.6947 22.2321 34.2941 23.6327 32.563 23.6327Z" fill="black"/>
<path d="M16.3455 21.8621C17.1004 21.8621 17.7124 21.2501 17.7124 20.4951C17.7124 19.7402 17.1004 19.1282 16.3455 19.1282C15.5905 19.1282 14.9785 19.7402 14.9785 20.4951C14.9785 21.2501 15.5905 21.8621 16.3455 21.8621Z" fill="black"/>
<path d="M31.7341 21.8621C32.4891 21.8621 33.1011 21.2501 33.1011 20.4951C33.1011 19.7402 32.4891 19.1282 31.7341 19.1282C30.9792 19.1282 30.3672 19.7402 30.3672 20.4951C30.3672 21.2501 30.9792 21.8621 31.7341 21.8621Z" fill="black"/>
</svg>
