<svg width="48" height="48" viewBox="0 0 48 48" fill="none" xmlns="http://www.w3.org/2000/svg">
<rect width="48" height="48" rx="24" fill="#A9FF7E"/>
<path d="M33.9598 29.977C33.9584 30.5311 33.8419 31.0788 33.6178 31.5855C33.3936 32.0922 33.0666 32.5468 32.6575 32.9205C32.2484 33.2942 31.7662 33.5788 31.2413 33.7563C30.7164 33.9338 30.1604 34.0004 29.6085 33.9517C29.0566 33.9031 28.5208 33.7403 28.0351 33.4737C27.5493 33.2071 27.1243 32.8424 26.7869 32.4029C26.4495 31.9635 26.2071 31.4587 26.0751 30.9206C25.943 30.3825 25.9242 29.8228 26.0198 29.277L21.1198 27.057C20.7453 27.5216 20.2717 27.8966 19.7336 28.1544C19.1955 28.4122 18.6065 28.5464 18.0098 28.547C16.9489 28.547 15.9315 28.1256 15.1813 27.3755C14.4312 26.6253 14.0098 25.6079 14.0098 24.547C14.0098 23.4862 14.4312 22.4687 15.1813 21.7186C15.9315 20.9685 16.9489 20.547 18.0098 20.547C18.5582 20.5488 19.1005 20.6633 19.6028 20.8835C20.1051 21.1037 20.5568 21.4249 20.9298 21.827L26.0898 19.027C25.9997 18.7014 25.956 18.3648 25.9598 18.027C25.9587 17.0964 26.2822 16.1945 26.8746 15.4767C27.4669 14.7589 28.291 14.2701 29.2049 14.0945C30.1188 13.9188 31.0653 14.0674 31.8815 14.5145C32.6977 14.9616 33.3325 15.6793 33.6765 16.544C34.0205 17.4088 34.0522 18.3664 33.7662 19.252C33.4801 20.1376 32.8943 20.8957 32.1094 21.3959C31.3246 21.896 30.39 22.1068 29.4664 21.9921C28.5429 21.8773 27.6883 21.4441 27.0498 20.767L21.8898 23.577C21.9798 23.9044 22.0231 24.2377 22.0198 24.577C22.0203 24.8117 22.0003 25.0459 21.9598 25.277L26.8598 27.497C27.378 26.8457 28.0864 26.3723 28.8864 26.1427C29.6864 25.9131 30.5381 25.9388 31.3228 26.2161C32.1075 26.4935 32.7862 27.0087 33.2642 27.69C33.7423 28.3713 33.9959 29.1848 33.9898 30.017L33.9598 29.977Z" fill="black"/>
</svg>
