<svg width="48" height="48" viewBox="0 0 48 48" fill="none" xmlns="http://www.w3.org/2000/svg">
<rect width="48" height="48" rx="24" fill="#A9FF7E"/>
<path d="M35.5729 17.7233C35.4545 17.4383 35.228 17.2117 34.9429 17.0933C34.8027 17.0336 34.6521 17.0018 34.4996 17H28.6663C28.3568 17 28.0601 17.1229 27.8413 17.3417C27.6225 17.5605 27.4996 17.8572 27.4996 18.1667C27.4996 18.4761 27.6225 18.7728 27.8413 18.9916C28.0601 19.2104 28.3568 19.3333 28.6663 19.3333H31.6879L25.1663 25.855L21.3279 22.005C21.2195 21.8956 21.0904 21.8089 20.9483 21.7496C20.8061 21.6904 20.6536 21.6599 20.4996 21.6599C20.3456 21.6599 20.1931 21.6904 20.0509 21.7496C19.9088 21.8089 19.7797 21.8956 19.6713 22.005L12.6713 29.005C12.5619 29.1135 12.4751 29.2425 12.4159 29.3847C12.3567 29.5268 12.3262 29.6793 12.3262 29.8333C12.3262 29.9873 12.3567 30.1398 12.4159 30.282C12.4751 30.4242 12.5619 30.5532 12.6713 30.6617C12.7797 30.771 12.9088 30.8578 13.0509 30.917C13.1931 30.9763 13.3456 31.0068 13.4996 31.0068C13.6536 31.0068 13.8061 30.9763 13.9483 30.917C14.0904 30.8578 14.2195 30.771 14.3279 30.6617L20.4996 24.4783L24.3379 28.3283C24.4464 28.4377 24.5754 28.5245 24.7176 28.5837C24.8598 28.6429 25.0123 28.6734 25.1663 28.6734C25.3203 28.6734 25.4728 28.6429 25.6149 28.5837C25.7571 28.5245 25.8861 28.4377 25.9946 28.3283L33.3329 20.9783V24C33.3329 24.3094 33.4558 24.6062 33.6746 24.825C33.8934 25.0437 34.1902 25.1667 34.4996 25.1667C34.809 25.1667 35.1058 25.0437 35.3246 24.825C35.5434 24.6062 35.6663 24.3094 35.6663 24V18.1667C35.6644 18.0142 35.6327 17.8636 35.5729 17.7233Z" fill="black"/>
</svg>
