<svg width="48" height="48" viewBox="0 0 48 48" fill="none" xmlns="http://www.w3.org/2000/svg">
<rect width="48" height="48" rx="24" fill="#A9FF7E"/>
<path d="M23.7566 34.1641C23.4711 34.1641 23.2203 34.0668 23.0041 33.8724C22.7879 33.6795 22.6798 33.4252 22.6798 33.1094C22.6798 32.9585 22.7128 32.7913 22.7789 32.6077C22.845 32.4242 22.9438 32.2667 23.0753 32.1352L27.0536 28.1569C27.1547 28.0558 27.2053 27.9488 27.2053 27.8361C27.2053 27.7233 27.1547 27.616 27.0536 27.5141C26.9525 27.4122 26.8413 27.3659 26.7199 27.3752C26.5986 27.3846 26.4948 27.4328 26.4084 27.5199L22.4383 31.4912C22.306 31.6235 22.1571 31.7222 21.9914 31.7876C21.8258 31.8537 21.6574 31.8867 21.4863 31.8867C21.186 31.8867 20.9313 31.7821 20.7221 31.5729C20.5129 31.3637 20.4086 31.1093 20.4094 30.8099C20.4094 30.6302 20.446 30.4548 20.5191 30.2837C20.593 30.1126 20.6859 29.9707 20.7979 29.8579L24.7763 25.8796C24.8774 25.7785 24.9279 25.6727 24.9279 25.5622C24.9279 25.4518 24.8774 25.3456 24.7763 25.2437C24.6751 25.1418 24.5651 25.0944 24.4461 25.1014C24.3271 25.1084 24.2244 25.1558 24.1381 25.2437L20.1598 29.2139C20.0431 29.3306 19.8984 29.4255 19.7258 29.4986C19.5531 29.5717 19.3789 29.6086 19.2031 29.6094C18.9068 29.6094 18.6532 29.5036 18.4424 29.2921C18.2316 29.0821 18.1263 28.8285 18.1263 28.5314C18.1263 28.3618 18.1589 28.1938 18.2243 28.0274C18.2896 27.861 18.3884 27.712 18.5206 27.5806L22.2224 23.8787C22.3235 23.7776 22.3741 23.6703 22.3741 23.5567C22.3741 23.4432 22.3235 23.3358 22.2224 23.2347C22.1213 23.1336 22.0113 23.0866 21.8923 23.0936C21.7733 23.1006 21.671 23.1476 21.5854 23.2347L17.8836 26.9436C17.7716 27.0556 17.6289 27.1485 17.4554 27.2224C17.2812 27.2955 17.1046 27.3321 16.9258 27.3321C16.61 27.3321 16.3514 27.2313 16.1499 27.0299C15.9493 26.8292 15.8489 26.571 15.8489 26.2552C15.8489 26.0841 15.8816 25.9157 15.9469 25.7501C16.013 25.5844 16.1118 25.4355 16.2433 25.3032L21.3089 20.2376C21.508 20.0385 21.7418 19.9412 22.0101 19.9459C22.2784 19.9506 22.5121 20.0525 22.7113 20.2516L24.5196 22.0599C24.7335 22.2738 24.975 22.4251 25.2441 22.5137C25.5132 22.6032 25.7862 22.6479 26.0631 22.6479C26.6254 22.6479 27.0952 22.4628 27.4724 22.0926C27.8496 21.7216 28.0383 21.2483 28.0383 20.6727C28.0383 20.4005 27.9858 20.126 27.8808 19.8491C27.7758 19.5722 27.612 19.3225 27.3896 19.1001L25.7948 17.5052C25.4012 17.1117 25.178 16.6575 25.1251 16.1426C25.0714 15.6285 25.225 15.1948 25.5859 14.8417C25.8348 14.5648 26.1257 14.3587 26.4586 14.2234C26.7907 14.0865 27.1368 14.0181 27.4969 14.0181C27.8609 14.0181 28.2191 14.0892 28.5714 14.2316C28.9245 14.3731 29.2461 14.5893 29.5363 14.8802L34.5343 19.8817C34.7793 20.1267 34.9733 20.4262 35.1164 20.7801C35.2595 21.1324 35.3311 21.5232 35.3311 21.9526C35.3311 22.3415 35.2584 22.709 35.1129 23.0551C34.9683 23.4012 34.7754 23.6948 34.5343 23.9359L24.7098 33.7674C24.5838 33.8934 24.436 33.9906 24.2664 34.0591C24.0984 34.1283 23.9289 34.1629 23.7578 34.1629M13.8108 24.4364C13.3962 24.0747 13.0812 23.6594 12.8658 23.1904C12.6519 22.7214 12.5449 22.2431 12.5449 21.7554C12.5449 21.3385 12.6223 20.9348 12.7771 20.5444C12.9319 20.154 13.1691 19.7985 13.4888 19.4781L18.0819 14.8791C18.3378 14.6224 18.6201 14.4217 18.9289 14.2771C19.2377 14.1324 19.571 14.0601 19.9288 14.0601C20.2943 14.0601 20.6498 14.1324 20.9951 14.2771C21.3404 14.4217 21.6406 14.6224 21.8958 14.8791L26.7538 19.7359C26.8805 19.8635 26.9778 20.0073 27.0454 20.1676C27.1131 20.3278 27.1473 20.4935 27.1481 20.6646C27.1481 20.9656 27.0439 21.2242 26.8354 21.4404C26.627 21.6566 26.3723 21.7647 26.0713 21.7647C25.8861 21.7647 25.7131 21.7305 25.5521 21.6621C25.3911 21.5936 25.2472 21.4964 25.1204 21.3704L23.3273 19.5842C22.9695 19.2265 22.5289 19.0476 22.0054 19.0476C21.482 19.0476 21.041 19.2265 20.6824 19.5842L15.7591 24.5064C15.4915 24.774 15.1726 24.8937 14.8024 24.8657C14.433 24.8385 14.1024 24.6954 13.8108 24.4364Z" fill="black"/>
</svg>
