<svg width="44" height="43" viewBox="0 0 44 43" fill="none" xmlns="http://www.w3.org/2000/svg">
<rect x="0.859375" width="42.5719" height="42.5719" rx="21.2859" fill="#A9FF7E"/>
<path fill-rule="evenodd" clip-rule="evenodd" d="M29.9226 13.7161C30.1698 13.6121 30.4402 13.5762 30.7059 13.6122C30.9716 13.6482 31.2228 13.7548 31.4333 13.9208C31.6439 14.0868 31.8061 14.3062 31.903 14.5562C32 14.8061 32.0282 15.0775 31.9846 15.3421L29.7166 29.0991C29.4966 30.4261 28.0406 31.1871 26.8236 30.5261C25.8056 29.9731 24.2937 29.1211 22.9337 28.2321C22.2537 27.7871 20.1707 26.3621 20.4267 25.3481C20.6467 24.4811 24.1466 21.2231 26.1466 19.2861C26.9316 18.5251 26.5737 18.0861 25.6467 18.7861C23.3447 20.5241 19.6486 23.1671 18.4266 23.9111C17.3486 24.5671 16.7866 24.6791 16.1146 24.5671C14.8886 24.3631 13.7516 24.0471 12.8236 23.6621C11.5696 23.1421 11.6306 21.4181 12.8226 20.9161L29.9226 13.7161Z" fill="black"/>
</svg>
