<svg width="43" height="43" viewBox="0 0 43 43" fill="none" xmlns="http://www.w3.org/2000/svg">
<circle cx="21.2859" cy="21.2859" r="21.2859" fill="#A9FF7E"/>
<path d="M27.2303 15.1634C26.0902 14.6211 24.8559 14.2274 23.5702 14C23.5476 14.0003 23.526 14.0098 23.5102 14.0262C23.3559 14.3149 23.1759 14.6911 23.0559 14.9797C21.6921 14.7699 20.3052 14.7699 18.9415 14.9797C18.8215 14.6823 18.6415 14.3149 18.4786 14.0262C18.47 14.0087 18.4443 14 18.4186 14C17.1329 14.2274 15.9071 14.6211 14.7585 15.1634C14.7499 15.1634 14.7414 15.1722 14.7328 15.1809C12.4013 18.7413 11.7584 22.2054 12.0756 25.6345C12.0756 25.652 12.0841 25.6695 12.1013 25.6782C13.6442 26.8329 15.1271 27.5327 16.5928 27.9964C16.6186 28.0051 16.6443 27.9964 16.6528 27.9789C16.9957 27.4978 17.3043 26.9904 17.57 26.4568C17.5872 26.4218 17.57 26.3868 17.5357 26.378C17.0471 26.1856 16.5843 25.9582 16.13 25.6957C16.0957 25.6782 16.0957 25.6257 16.1214 25.5995C16.2157 25.5295 16.31 25.4508 16.4043 25.3808C16.4214 25.3633 16.4471 25.3633 16.4643 25.3721C19.4129 26.7455 22.593 26.7455 25.5074 25.3721C25.5245 25.3633 25.5502 25.3633 25.5674 25.3808C25.6617 25.4595 25.7559 25.5295 25.8502 25.6082C25.8845 25.6345 25.8845 25.687 25.8417 25.7045C25.3959 25.9756 24.9245 26.1943 24.4359 26.3868C24.4016 26.3955 24.3931 26.4393 24.4016 26.4655C24.6759 26.9991 24.9845 27.5065 25.3188 27.9876C25.3445 27.9964 25.3702 28.0051 25.3959 27.9964C26.8703 27.5327 28.3532 26.8329 29.8961 25.6782C29.9132 25.6695 29.9218 25.652 29.9218 25.6345C30.2989 21.6718 29.296 18.2339 27.2646 15.1809C27.256 15.1722 27.2474 15.1634 27.2303 15.1634ZM18.0157 23.5438C17.1329 23.5438 16.3957 22.7127 16.3957 21.6893C16.3957 20.6658 17.1157 19.8347 18.0157 19.8347C18.9243 19.8347 19.6444 20.6745 19.6358 21.6893C19.6358 22.7127 18.9158 23.5438 18.0157 23.5438ZM23.9902 23.5438C23.1073 23.5438 22.3701 22.7127 22.3701 21.6893C22.3701 20.6658 23.0902 19.8347 23.9902 19.8347C24.8988 19.8347 25.6188 20.6745 25.6102 21.6893C25.6102 22.7127 24.8988 23.5438 23.9902 23.5438Z" fill="black"/>
</svg>
