<svg width="44" height="43" viewBox="0 0 44 43" fill="none" xmlns="http://www.w3.org/2000/svg">
<circle cx="22.0015" cy="21.2859" r="21.2859" fill="#A9FF7E"/>
<path fill-rule="evenodd" clip-rule="evenodd" d="M29.7174 15.9115C29.9814 16.1755 30.1716 16.504 30.2691 16.8644C30.8306 19.1245 30.7009 22.6941 30.28 25.0414C30.1825 25.4018 29.9923 25.7303 29.7283 25.9943C29.4643 26.2583 29.1358 26.4485 28.7754 26.546C27.4562 26.9058 22.1466 26.9058 22.1466 26.9058C22.1466 26.9058 16.837 26.9058 15.5177 26.546C15.1574 26.4485 14.8288 26.2583 14.5649 25.9943C14.3009 25.7303 14.1107 25.4018 14.0132 25.0414C13.4484 22.7911 13.6032 19.2194 14.0023 16.8753C14.0998 16.5149 14.29 16.1864 14.554 15.9224C14.8179 15.6584 15.1465 15.4682 15.5068 15.3707C16.8261 15.0109 22.1357 15 22.1357 15C22.1357 15 27.4453 15 28.7645 15.3598C29.1249 15.4573 29.4534 15.6475 29.7174 15.9115ZM24.8505 20.9529L20.4458 23.5041V18.4016L24.8505 20.9529Z" fill="black"/>
</svg>
