<svg width="137" height="29" viewBox="0 0 137 29" fill="none" xmlns="http://www.w3.org/2000/svg">
<g id="supra-log" clip-path="url(#clip0_2_1149)">
<g id="icon">
<path id="Vector" d="M29.4746 14.5C29.4746 22.5069 22.9875 29 14.9877 29C6.98705 29 0.5 22.5069 0.5 14.5C0.5 6.4931 6.98705 0 14.9877 0C22.9875 0 29.4746 6.4931 29.4746 14.5Z" fill="white"/>
<path id="Vector_2" d="M23.2969 7.5241C22.9495 6.63815 22.3668 5.86168 21.716 5.21063C21.0298 4.57047 20.2311 4.06035 19.3594 3.70553C18.7952 3.47957 18.2031 3.32914 17.5987 3.2582C15.4381 2.945 13.1619 3.6091 11.5109 5.265C9.60472 7.1732 8.93496 9.96663 9.77582 12.5672V12.5926C9.24767 12.9226 8.76391 13.3177 8.33612 13.7685C7.67294 14.4645 7.13552 15.2736 6.78747 16.1596C6.44644 17.0485 6.27535 17.9926 6.28296 18.9436C6.28296 19.91 6.4855 20.8286 6.86498 21.6826C7.21302 22.5686 7.79578 23.3451 8.4458 23.9961C9.13206 24.6363 9.93078 25.1464 10.8024 25.5012C11.6557 25.8492 12.5762 26.0065 13.507 26.0065C13.3754 26.0065 13.246 26 13.1173 25.9942C14.1204 26.0483 15.1236 25.8903 16.0605 25.5309C16.9973 25.1714 17.8464 24.6186 18.5515 23.9091C19.4878 22.9787 20.1468 21.81 20.4558 20.5319C20.7648 19.2537 20.7118 17.9158 20.3027 16.6656C20.8658 16.3279 21.3792 15.9149 21.8286 15.4382C22.4918 14.7422 23.03 13.9331 23.3773 13.0472C23.7187 12.1583 23.8903 11.2142 23.8833 10.2632C23.8842 9.31979 23.6857 8.38671 23.3005 7.5241M17.0511 8.03958C17.0006 7.81226 16.9768 7.57993 16.9802 7.3472C17.2412 7.39215 17.4891 7.469 17.7369 7.57195C18.085 7.71695 18.3877 7.95258 18.6224 8.223C18.8476 8.50358 19.0472 8.80663 19.1598 9.15463C19.2827 9.50263 19.3178 9.85063 19.3178 10.1986C19.2787 10.8596 18.9983 11.4838 18.5288 11.9546L17.0518 8.0432L17.0511 8.03958ZM18.7387 12.5092C18.7833 12.4672 18.8286 12.4251 18.8673 12.3765C19.1693 12.0612 19.3594 11.7262 19.5174 11.3325C19.6753 10.9396 19.7075 10.514 19.7075 10.1312C19.7075 9.70563 19.5949 9.3221 19.4369 8.9741C19.279 8.6261 19.0121 8.31 18.7416 8.0432C18.471 7.80758 18.123 7.57195 17.7757 7.45958C17.5249 7.36968 17.2507 7.33053 16.9743 7.31168C16.9852 6.85892 17.1008 6.41468 17.3121 6.0132C17.6273 6.0741 17.93 6.16763 18.2232 6.3032C18.7606 6.5381 19.1883 6.8861 19.5686 7.26963C19.9166 7.6952 20.2317 8.15558 20.4218 8.66163C20.612 9.16768 20.6924 9.6962 20.6924 10.2436C20.6924 10.7917 20.5798 11.3325 20.3451 11.7936C20.1523 12.2787 19.8493 12.7131 19.4596 13.0631C19.3337 13.176 19.2004 13.2804 19.0604 13.3756L18.735 12.5121L18.7387 12.5092ZM19.2629 13.8976C19.464 13.7486 19.6546 13.586 19.8332 13.4111C20.2259 12.9855 20.5732 12.4447 20.7633 11.906C20.998 11.3231 21.0784 10.7402 21.0784 10.166C21.0784 9.59325 20.9337 9.00963 20.696 8.47168C20.4631 7.94474 20.1234 7.47093 19.698 7.07968C19.2724 6.69905 18.8125 6.38368 18.2744 6.193C17.9708 6.08833 17.6572 6.01496 17.3384 5.97405C17.473 5.7261 17.6375 5.497 17.84 5.2911C17.998 5.13305 18.172 4.9982 18.3519 4.8822C18.4966 4.93295 18.6385 4.99095 18.7767 5.0562C19.4487 5.33961 20.0531 5.76003 20.5505 6.29015C21.0565 6.7962 21.436 7.45668 21.7065 8.107C21.9771 8.803 22.0897 9.53163 22.0897 10.2276C22.059 10.9448 21.9031 11.6513 21.629 12.3156C21.3585 12.9341 20.9344 13.5046 20.4284 14.0107C20.1686 14.2711 19.8805 14.5021 19.5693 14.6994L19.2629 13.8911V13.8976ZM11.7266 24.2992C11.613 24.2565 11.5013 24.2091 11.3917 24.1571C10.7197 23.8737 10.1153 23.4532 9.61788 22.9231C9.11191 22.4171 8.73242 21.7566 8.46188 21.1026C8.20507 20.4249 8.07619 19.706 8.08167 18.982C8.11085 18.2646 8.26676 17.5579 8.54231 16.894C8.81285 16.2756 9.23767 15.705 9.74365 15.1997C9.98332 14.9583 10.2475 14.7421 10.5319 14.5544L10.8441 15.3664C10.666 15.5013 10.4972 15.6479 10.3388 15.8051C9.94619 16.2306 9.59814 16.7722 9.40877 17.3102C9.17332 17.8931 9.09289 18.4767 9.09289 19.0502C9.09289 19.6229 9.23767 20.2065 9.47603 20.7452C9.709 21.2721 10.0487 21.7459 10.4741 22.1372C10.8989 22.5171 11.3588 22.8332 11.8999 23.0232C12.1741 23.1196 12.4607 23.187 12.7473 23.2291C12.6149 23.4673 12.4501 23.6864 12.2575 23.8801C12.0988 24.0389 11.9216 24.1784 11.7295 24.2955M11.9452 22.9072C11.4078 22.6715 10.9801 22.3235 10.5999 21.94C10.2518 21.5152 9.9396 21.0541 9.74657 20.548C9.56133 20.0411 9.46969 19.5052 9.47603 18.9661C9.47603 18.4187 9.58864 17.8771 9.82408 17.416C10.0142 16.923 10.3286 16.4953 10.7088 16.1473C10.8156 16.0501 10.9282 15.9631 11.0437 15.879L11.3786 16.7563C11.353 16.7816 11.3274 16.8041 11.3018 16.8331C10.9991 17.1456 10.809 17.4842 10.651 17.8771C10.4931 18.2701 10.4609 18.6956 10.4609 19.0792C10.4609 19.5069 10.5735 19.8875 10.7315 20.2355C10.8894 20.5835 11.1563 20.8996 11.4268 21.1672C11.6974 21.4021 12.0454 21.6377 12.3927 21.7501C12.6245 21.8305 12.8724 21.8733 13.1268 21.8922C13.1065 22.343 12.9843 22.7835 12.7693 23.1812C12.4852 23.1205 12.2088 23.0286 11.9452 22.9072ZM13.0691 21.157C13.1173 21.389 13.1334 21.621 13.1268 21.8501C12.8905 21.8028 12.6597 21.7317 12.4381 21.6377C12.09 21.4927 11.7873 21.2571 11.5526 20.9866C11.3274 20.7061 11.1278 20.403 11.0152 20.055C10.8923 19.707 10.8572 19.359 10.8572 19.011C10.8949 18.3761 11.1557 17.7743 11.5943 17.3102L13.0691 21.157ZM8.62347 23.8736C7.95956 23.2102 7.50257 22.4461 7.15453 21.5956C6.85255 20.7865 6.69388 19.8556 6.69388 18.9697C6.73922 18.083 6.92932 17.1971 7.27737 16.3887C7.62468 15.5694 8.1621 14.8386 8.78068 14.2231C9.15679 13.8502 9.57856 13.5255 10.0361 13.2567L10.2745 13.8751C9.91036 14.1136 9.57255 14.3812 9.27642 14.7067C8.73665 15.2729 8.3174 15.9411 8.04365 16.6714C7.77311 17.4001 7.66343 18.1765 7.66343 18.9501C7.70876 19.7135 7.85354 20.4871 8.16868 21.1831C8.48199 21.8791 8.92818 22.5083 9.48261 23.0362C10.0277 23.5518 10.667 23.9595 11.3661 24.2375C11.4656 24.2767 11.5658 24.3086 11.6659 24.3441C11.2084 24.6129 10.6897 24.7625 10.1582 24.7791C9.96887 24.7826 9.7798 24.7631 9.59522 24.7211C9.24674 24.4711 8.92241 24.1895 8.6264 23.8801M22.9013 12.8282C22.5532 13.646 22.0158 14.3775 21.3972 14.9931C21.0006 15.3878 20.5526 15.7282 20.065 16.0052L19.8332 15.3889C20.2279 15.144 20.5883 14.8485 20.9052 14.5102C21.4426 13.936 21.8703 13.2755 22.1379 12.544C22.4085 11.8161 22.5181 11.0396 22.5181 10.2661C22.4728 9.50263 22.328 8.72905 22.0122 8.03305C21.3878 6.64143 20.2411 5.5458 18.8154 4.97863C18.6847 4.92793 18.5515 4.88389 18.4162 4.84668C19.0677 4.45881 19.8447 4.33421 20.5864 4.49868C20.9373 4.74953 21.262 5.033 21.5515 5.33968C22.2154 6.00305 22.6724 6.76358 23.0197 7.61763C23.3224 8.426 23.4804 9.35763 23.4804 10.2436C23.4358 11.1295 23.2457 12.0191 22.8976 12.8246" fill="#DD1438"/>
</g>
<path id="Vector_3" d="M38.7891 23.9903C37.3531 23.5705 36.1978 23.0297 35.3284 22.3627L36.8573 18.966C37.6909 19.5787 38.6831 20.0717 39.8325 20.4421C40.9819 20.8119 42.1306 20.9997 43.28 20.9997C44.5618 20.9997 45.505 20.809 46.117 20.4291C46.7283 20.0492 47.0339 19.5431 47.0339 18.9117C47.0339 18.4477 46.8541 18.0605 46.4929 17.7546C46.1324 17.4486 45.6688 17.2036 45.1022 17.0165C44.5355 16.8295 43.7729 16.6265 42.807 16.4046C41.3227 16.053 40.1089 15.6992 39.1657 15.3476C38.2221 14.996 37.3846 14.4116 36.7323 13.6496C36.056 12.8695 35.7182 11.832 35.7182 10.5336C35.7182 9.40256 36.0238 8.37451 36.6351 7.45666C37.2471 6.53808 38.1676 5.81018 39.4011 5.27151C40.6339 4.73356 42.1409 4.46313 43.9206 4.46313C45.1636 4.46313 46.3773 4.61103 47.5619 4.90756C48.7464 5.20408 49.7868 5.63256 50.6782 6.18719L49.2874 9.61209C47.488 8.59419 45.6915 8.08161 43.8913 8.08161C42.63 8.08161 41.6992 8.28751 41.0975 8.69351C40.4957 9.10314 40.193 9.64109 40.193 10.3081C40.193 10.9751 40.5403 11.4746 41.2357 11.7965C41.931 12.1228 42.9934 12.4418 44.42 12.7571C45.9043 13.108 47.118 13.4626 48.0612 13.8135C49 14.1602 49.8365 14.7342 50.4946 15.4831C51.171 16.2437 51.5088 17.2739 51.5088 18.5731C51.518 19.6591 51.1936 20.7222 50.5787 21.621C49.9572 22.5396 49.0235 23.2675 47.7841 23.8061C46.5411 24.3441 45.0312 24.6109 43.2508 24.6109C41.7399 24.6148 40.2364 24.4034 38.7862 23.983M56.8786 22.3039C55.3299 20.764 54.5578 18.5629 54.5578 15.7086V4.79736H59.0619V15.5411C59.0619 19.0306 60.5067 20.7735 63.4015 20.7735C64.8083 20.7735 65.8868 20.3515 66.6274 19.5076C67.3674 18.663 67.741 17.342 67.741 15.5411V4.79808H72.1903V15.7086C72.1903 18.5666 71.4145 20.764 69.8688 22.3039C68.3209 23.8446 66.1573 24.6145 63.3759 24.6145C60.5937 24.6145 58.4302 23.8446 56.8822 22.3039M88.5022 5.66156C89.7709 6.23431 90.7499 7.05356 91.435 8.11061C92.1209 9.16694 92.4653 10.4205 92.4653 11.8676C92.4653 13.3139 92.1245 14.545 91.435 15.6115C90.7499 16.6779 89.7709 17.4965 88.5022 18.0605C87.2344 18.6275 85.734 18.9109 84.0113 18.9109H80.09V24.2832H75.5859V4.79736H84.0113C85.7369 4.79736 87.2344 5.08373 88.5022 5.66011V5.66156ZM86.8476 14.3579C87.5524 13.775 87.9034 12.9442 87.9034 11.8676C87.9034 10.7909 87.5524 9.93399 86.8476 9.35109C86.1427 8.76746 85.1125 8.47383 83.7605 8.47383H80.09V15.2381H83.7605C85.1125 15.2381 86.1427 14.9445 86.8476 14.3608M108.125 24.2825L104.371 18.8529H100.227V24.2832H95.7234V4.79736H104.149C105.874 4.79736 107.372 5.08373 108.64 5.66011C109.908 6.23431 110.887 7.05211 111.573 8.10988C112.258 9.16621 112.603 10.4197 112.603 11.8668C112.603 13.3132 112.255 14.5638 111.56 15.6107C110.865 16.662 109.876 17.4602 108.598 18.0177L112.964 24.2817L108.125 24.2825ZM106.985 9.35109C106.28 8.76746 105.25 8.47383 103.898 8.47383H100.227V15.2671H103.898C105.25 15.2671 106.28 14.9698 106.985 14.3775C107.69 13.7845 108.041 12.95 108.041 11.8741C108.041 10.7975 107.69 9.94051 106.985 9.35399M129.963 20.1065H120.925L119.2 24.2825H114.583L123.26 4.79808H127.709L136.414 24.2825H131.688L129.963 20.1065ZM128.543 16.6816L125.455 9.22131L122.368 16.6816H128.543Z" fill="white"/>
</g>
<defs>
<clipPath id="clip0_2_1149">
<rect width="136" height="29" fill="white" transform="translate(0.5)"/>
</clipPath>
</defs>
</svg>
